<svg xmlns="http://www.w3.org/2000/svg" viewBox="0 0 64 64"><rect width="64" height="64" rx="16" fill="#1b2559"/><g fill="none" stroke="#a3b8ff" stroke-width="3.6" stroke-linecap="round" stroke-linejoin="round" transform="translate(8 8)"><path d="M19 8.4A6 6 0 0 0 12 14a6 6 0 0 0-4.4 10 7 7 0 0 0 5.4 11.4A5.6 5.6 0 0 0 24 38V12a5 5 0 0 0-5-3.6z"/><path d="M29 8.4A6 6 0 0 1 36 14a6 6 0 0 1 4.4 10A7 7 0 0 1 35 35.4 5.6 5.6 0 0 1 24 38"/><path d="M16 21a4 4 0 0 1 4 4M32 21a4 4 0 0 0-4 4"/></g><circle cx="49" cy="15" r="5" fill="#ffffff"/></svg>